<svg width="175" height="35" viewBox="0 0 620 125" fill="none" xmlns="http://www.w3.org/2000/svg" >
<path fill-rule="evenodd" clip-rule="evenodd" d="M95.6094 28.4375C95.2328 25.1931 93.7707 22.1712 91.4605 19.8624C89.1502 17.5536 86.1274 16.0933 82.8828 15.7188L76.6328 21.9688C82.2399 24.5808 86.7483 29.0836 89.3672 34.6875L95.6094 28.4375ZM37.0312 61.5625L67.2656 31.3438C70.51 31.7203 73.5319 33.1824 75.8407 35.4927C78.1495 37.8029 79.6098 40.8257 79.9844 44.0703L49.7578 74.2969C48.0299 76.0212 45.8066 77.1629 43.3984 77.5625L31.8359 79.4922L33.7656 67.9297C34.1652 65.5215 35.3069 63.2904 37.0312 61.5625ZM75.9375 6.09375L60.3125 21.7187L28.75 53.2813C25.2956 56.735 23.0067 61.1818 22.2031 66L19.375 82.9687C19.1716 84.1951 19.2638 85.4522 19.6439 86.6358C20.024 87.8193 20.681 88.8951 21.5603 89.7737C22.4397 90.6523 23.5161 91.3084 24.6999 91.6874C25.8838 92.0665 27.141 92.1576 28.3672 91.9531L45.3203 89.1406C50.1423 88.3364 54.5921 86.0446 58.0469 82.5859L89.6094 51.0234L105.234 35.3984C106.641 33.9922 107.422 32.0938 107.422 30.1094C107.423 26.6687 106.746 23.2615 105.43 20.0825C104.114 16.9034 102.185 14.0147 99.7522 11.5814C97.3196 9.14815 94.4315 7.21792 91.2529 5.901C88.0742 4.58407 84.6672 3.90625 81.2266 3.90625C79.2422 3.90625 77.3359 4.6875 75.9297 6.09375M21.4844 101.562C19.9304 101.562 18.44 102.18 17.3412 103.279C16.2423 104.378 15.625 105.868 15.625 107.422C15.625 108.976 16.2423 110.466 17.3412 111.565C18.44 112.664 19.9304 113.281 21.4844 113.281H103.516C105.07 113.281 106.56 112.664 107.659 111.565C108.758 110.466 109.375 108.976 109.375 107.422C109.375 105.868 108.758 104.378 107.659 103.279C106.56 102.18 105.07 101.562 103.516 101.562H21.4844Z" fill="black"/>
<path d="M172.3 89C167.967 89 164.467 88.3 161.8 86.9C159.2 85.4333 157.233 83.4333 155.9 80.9C154.633 78.3 153.8 75.3 153.4 71.9C153.067 68.5 152.933 64.8333 153 60.9C152 60.1 151.233 59.3333 150.7 58.6C150.233 57.8667 150 56.7667 150 55.3C150 53.8333 150.3 52.8 150.9 52.2C151.567 51.5333 152.333 50.9667 153.2 50.5C154.067 49.9667 154.8 49.2333 155.4 48.3C155.6 48.1 155.8 47.7667 156 47.3C156.2 46.7667 156.333 46.3 156.4 45.9C156.933 44.5 157.267 43.0667 157.4 41.6C157.6 40.0667 157.9 38.5667 158.3 37.1V36.6C158.3 36.5333 158 36.3667 157.4 36.1C156.133 35.6333 154.833 35.0667 153.5 34.4C152.167 33.7333 151.5 32.5 151.5 30.7C151.5 28.6333 152.067 27.1667 153.2 26.3C154.333 25.4333 155.767 24.8667 157.5 24.6C161.767 23.8667 165.833 23.3 169.7 22.9C173.633 22.4333 177.767 22.2 182.1 22.2C183.367 22.2 184.767 22.2667 186.3 22.4C187.833 22.4667 189.3 22.7333 190.7 23.2C192.1 23.6 193.233 24.2667 194.1 25.2C195.033 26.0667 195.5 27.2667 195.5 28.8C195.5 29.8667 195.133 30.9 194.4 31.9C193.667 32.9 192.7 33.4 191.5 33.4H175.7C173.633 33.4 172 34.2 170.8 35.8C169.667 37.3333 168.867 39.2667 168.4 41.6C167.933 43.8667 167.633 46.1 167.5 48.3C169.833 48.2333 171.833 48.1333 173.5 48C175.167 47.8667 176.733 47.8 178.2 47.8H182.2C185.8 48.9333 187.6 51.1 187.6 54.3C187.6 55.9 186.9 57.1 185.5 57.9C184.1 58.6333 182.3 59.1333 180.1 59.4C177.967 59.6 175.7 59.7333 173.3 59.8C170.9 59.8 168.733 59.8667 166.8 60C165.533 60.0667 164.733 60.6333 164.4 61.7C164.067 62.7667 163.9 63.9 163.9 65.1C163.9 65.6333 163.9 66.2 163.9 66.8C163.967 67.3333 164 67.8 164 68.2C164 69.2667 164.067 70.4667 164.2 71.8C164.333 73.0667 164.7 74.2 165.3 75.2C165.9 76.2 166.9 76.9 168.3 77.3H172.8C175.933 77.3 179.033 76.9 182.1 76.1C185.233 75.3 188.367 74.9 191.5 74.9C193.233 74.9 194.5 75.2333 195.3 75.9C196.1 76.5667 196.5 77.9333 196.5 80C196.5 82.2667 195.5 84.0333 193.5 85.3C191.5 86.5 189.2 87.3667 186.6 87.9C184.267 88.3667 181.9 88.6667 179.5 88.8C177.1 88.9333 174.7 89 172.3 89ZM244.922 91C243.455 91 242.289 90.6667 241.422 90C240.555 89.2667 239.755 88.2667 239.022 87C238.889 86.6667 238.455 85.9333 237.722 84.8C237.055 83.6667 236.355 82.5 235.622 81.3C234.889 80.0333 234.355 79.1333 234.022 78.6C233.689 78.1333 233.222 77.4 232.622 76.4C232.022 75.4 231.422 74.4667 230.822 73.6C230.222 72.7333 229.689 72.3 229.222 72.3C228.889 72.3 228.422 72.6333 227.822 73.3C227.289 73.9 226.755 74.5333 226.222 75.2C225.755 75.8667 225.455 76.2667 225.322 76.4L222.422 80.1C221.555 80.9667 220.522 82.0333 219.322 83.3C218.122 84.5667 216.855 85.6667 215.522 86.6C214.255 87.5333 212.922 88 211.522 88C208.789 88 207.422 86.5 207.422 83.5C207.422 81.8333 207.922 80.1667 208.922 78.5C209.922 76.8333 211.155 75.2667 212.622 73.8C214.089 72.2667 215.555 70.8 217.022 69.4C218.555 68 219.822 66.7 220.822 65.5C221.822 64.3 222.322 63.2333 222.322 62.3C222.322 61.7667 222.289 61.4333 222.222 61.3C222.155 61.1667 221.989 60.8667 221.722 60.4C220.722 58.4 219.489 56.4667 218.022 54.6C216.555 52.6667 215.122 50.8333 213.722 49.1C212.789 47.9667 211.922 46.7333 211.122 45.4C210.322 44.0667 209.922 42.6333 209.922 41.1C209.922 38.3667 211.255 37 213.922 37C215.522 37 216.889 37.5 218.022 38.5C219.222 39.4333 220.355 40.4333 221.422 41.5C221.889 42.1 222.655 43.1333 223.722 44.6C224.789 46 225.855 47.4 226.922 48.8C228.055 50.2 228.855 51.2333 229.322 51.9L230.722 53.3L231.622 52.8L245.922 38.5C246.455 37.9667 247.089 37.6667 247.822 37.6C248.555 37.5333 249.255 37.5 249.922 37.5C251.122 37.5 252.089 37.9333 252.822 38.8C253.555 39.6667 253.922 40.7667 253.922 42.1C253.922 43.1 253.789 43.9333 253.522 44.6C253.322 45.2 252.955 45.8667 252.422 46.6C251.822 47.2 250.889 48.1667 249.622 49.5C248.422 50.8333 247.089 52.3 245.622 53.9C244.222 55.5 242.922 56.9667 241.722 58.3C240.522 59.5667 239.655 60.4333 239.122 60.9C238.455 61.5667 238.055 62.0667 237.922 62.4C237.789 62.6667 237.722 62.9667 237.722 63.3C237.722 63.9 237.889 64.3667 238.222 64.7C238.555 65.1667 239.155 66.1667 240.022 67.7C240.955 69.1667 241.955 70.8 243.022 72.6C244.089 74.3333 245.055 75.9 245.922 77.3C246.789 78.7 247.322 79.5667 247.522 79.9C248.322 81.1667 248.855 82.2667 249.122 83.2C249.389 84.1333 249.522 85.2 249.522 86.4V89.1C248.655 89.9667 247.955 90.5 247.422 90.7C246.889 90.9 246.055 91 244.922 91ZM283.644 91C280.577 91 277.71 90.3 275.044 88.9C272.377 87.5 270.144 85.6333 268.344 83.3C266.544 80.9 265.377 78.2 264.844 75.2V70.1C264.844 66.3667 265.51 62.6 266.844 58.8C268.177 55 270.077 51.5 272.544 48.3C275.01 45.0333 277.944 42.4333 281.344 40.5C284.744 38.5 288.477 37.5 292.544 37.5C294.21 37.5 295.644 37.8 296.844 38.4C298.11 39 299.244 39.6333 300.244 40.3C301.31 40.9 302.344 41.2667 303.344 41.4C303.877 38.6667 304.61 36.8667 305.544 36C306.477 35.0667 307.744 34.6 309.344 34.6C311.277 34.6 312.577 35.2333 313.244 36.5C313.977 37.7 314.344 39.2333 314.344 41.1C314.344 44.7667 314.244 48.3667 314.044 51.9C313.91 55.4333 313.844 59.0667 313.844 62.8C313.844 65.7333 314.01 68.7667 314.344 71.9C314.677 75.0333 314.844 78.0667 314.844 81V83.1C314.844 84.5667 314.544 85.9333 313.944 87.2C313.41 88.4 312.177 89 310.244 89C308.444 89 307.144 88.4667 306.344 87.4C305.61 86.2667 305.11 84.9333 304.844 83.4C304.644 81.8 304.444 80.3667 304.244 79.1L303.844 78.7C301.577 80.9667 299.544 83.0333 297.744 84.9C296.01 86.7667 294.077 88.2667 291.944 89.4C289.81 90.4667 287.044 91 283.644 91ZM282.644 80.9C284.977 80.9 287.177 80.2 289.244 78.8C291.377 77.3333 293.277 75.4667 294.944 73.2C296.61 70.8667 297.91 68.4333 298.844 65.9C299.777 63.3667 300.244 61 300.244 58.8C300.244 57.1333 300.01 55.4667 299.544 53.8C299.077 52.0667 298.277 50.6 297.144 49.4C296.077 48.2 294.544 47.6 292.544 47.6C290.344 47.6 288.177 48.3667 286.044 49.9C283.977 51.4333 282.11 53.4 280.444 55.8C278.777 58.1333 277.444 60.6 276.444 63.2C275.444 65.7333 274.944 68.0333 274.944 70.1C274.944 71.7667 275.177 73.4333 275.644 75.1C276.177 76.7667 277.01 78.1667 278.144 79.3C279.277 80.3667 280.777 80.9 282.644 80.9ZM334.181 89C332.715 89 331.415 88.5333 330.281 87.6C329.215 86.6 328.681 85.3667 328.681 83.9C328.681 81.7 328.748 79.5667 328.881 77.5C329.081 75.4333 329.181 73.3333 329.181 71.2V64.6C329.181 61.8667 329.081 59.1667 328.881 56.5C328.748 53.7667 328.315 51.0667 327.581 48.4C327.315 47.6 327.081 46.7667 326.881 45.9C326.748 44.9667 326.681 44.0333 326.681 43.1C326.681 41.7667 327.015 40.4333 327.681 39.1C328.348 37.7 329.548 37 331.281 37C332.681 37 333.815 37.5333 334.681 38.6C335.548 39.6 336.215 40.8667 336.681 42.4C337.148 43.8667 337.481 45.3667 337.681 46.9C337.948 48.3667 338.181 49.6 338.381 50.6C338.515 51.4667 338.715 52.4 338.981 53.4C339.248 54.4 339.381 55.3667 339.381 56.3C339.381 56.3667 339.448 56.5667 339.581 56.9C339.715 57.2333 339.848 57.5667 339.981 57.9C340.848 56.3667 341.815 54.7 342.881 52.9C344.015 51.0333 345.248 49.3 346.581 47.7C347.981 46.0333 349.515 44.6667 351.181 43.6C352.915 42.5333 354.815 42 356.881 42C359.015 42 360.615 42.5333 361.681 43.6C362.815 44.6 363.715 45.8667 364.381 47.4C365.048 48.8667 365.715 50.3333 366.381 51.8C366.648 52.4667 366.815 53.1667 366.881 53.9C366.948 54.5667 367.115 55.2667 367.381 56L368.481 54.4C369.815 52.5333 371.315 50.5 372.981 48.3C374.715 46.0333 376.648 44.1 378.781 42.5C380.915 40.8333 383.315 40 385.981 40C388.115 40 389.915 40.6333 391.381 41.9C392.915 43.1 394.148 44.6667 395.081 46.6C396.081 48.5333 396.815 50.5333 397.281 52.6C397.748 54.6667 397.981 56.5667 397.981 58.3V79.5C397.981 80.5 397.815 81.6 397.481 82.8C397.215 83.9333 396.715 84.9333 395.981 85.8C395.248 86.6 394.215 87 392.881 87C391.348 87 390.115 86.4667 389.181 85.4C388.248 84.3333 387.781 83.2 387.781 82V63.8C387.781 63.6 387.748 63.1667 387.681 62.5C387.615 61.8333 387.515 61.1333 387.381 60.4C387.315 59.6667 387.281 59.1333 387.281 58.8C387.281 58.2667 387.215 57.4333 387.081 56.3C386.948 55.1667 386.681 54.1 386.281 53.1C385.881 52.1 385.281 51.6 384.481 51.6H383.581C381.581 53.3333 380.081 55 379.081 56.6C378.081 58.1333 377.315 59.6667 376.781 61.2C376.248 62.7333 375.748 64.3667 375.281 66.1C374.815 67.7667 374.148 69.6 373.281 71.6C372.815 73.3333 372.048 74.9667 370.981 76.5C369.981 77.9667 368.581 78.7 366.781 78.7C365.048 78.7 363.715 78.2333 362.781 77.3C361.915 76.3 361.248 75.1 360.781 73.7C360.381 72.3 360.048 70.9667 359.781 69.7C359.648 69.1 359.415 68.1 359.081 66.7C358.748 65.3 358.381 63.7667 357.981 62.1C357.648 60.4333 357.315 58.8667 356.981 57.4C356.648 55.8667 356.415 54.7333 356.281 54C355.881 53.4 355.481 53.1 355.081 53.1C354.481 53.1 353.848 53.5333 353.181 54.4C352.515 55.2667 352.015 56.1 351.681 56.9C351.281 57.5 350.715 58.5667 349.981 60.1C349.248 61.5667 348.548 63 347.881 64.4C347.281 65.8 346.881 66.7333 346.681 67.2C346.548 67.6 346.148 68.5667 345.481 70.1C344.881 71.6333 344.181 73.4 343.381 75.4C342.581 77.3333 341.848 79.1 341.181 80.7C340.515 82.3 340.081 83.3667 339.881 83.9C339.215 85.1667 338.515 86.3333 337.781 87.4C337.115 88.4667 335.915 89 334.181 89ZM427.784 91C424.718 91 421.851 90.3 419.184 88.9C416.518 87.5 414.284 85.6333 412.484 83.3C410.684 80.9 409.518 78.2 408.984 75.2V70.1C408.984 66.3667 409.651 62.6 410.984 58.8C412.318 55 414.218 51.5 416.684 48.3C419.151 45.0333 422.084 42.4333 425.484 40.5C428.884 38.5 432.618 37.5 436.684 37.5C438.351 37.5 439.784 37.8 440.984 38.4C442.251 39 443.384 39.6333 444.384 40.3C445.451 40.9 446.484 41.2667 447.484 41.4C448.018 38.6667 448.751 36.8667 449.684 36C450.618 35.0667 451.884 34.6 453.484 34.6C455.418 34.6 456.718 35.2333 457.384 36.5C458.118 37.7 458.484 39.2333 458.484 41.1C458.484 44.7667 458.384 48.3667 458.184 51.9C458.051 55.4333 457.984 59.0667 457.984 62.8C457.984 65.7333 458.151 68.7667 458.484 71.9C458.818 75.0333 458.984 78.0667 458.984 81V83.1C458.984 84.5667 458.684 85.9333 458.084 87.2C457.551 88.4 456.318 89 454.384 89C452.584 89 451.284 88.4667 450.484 87.4C449.751 86.2667 449.251 84.9333 448.984 83.4C448.784 81.8 448.584 80.3667 448.384 79.1L447.984 78.7C445.718 80.9667 443.684 83.0333 441.884 84.9C440.151 86.7667 438.218 88.2667 436.084 89.4C433.951 90.4667 431.184 91 427.784 91ZM426.784 80.9C429.118 80.9 431.318 80.2 433.384 78.8C435.518 77.3333 437.418 75.4667 439.084 73.2C440.751 70.8667 442.051 68.4333 442.984 65.9C443.918 63.3667 444.384 61 444.384 58.8C444.384 57.1333 444.151 55.4667 443.684 53.8C443.218 52.0667 442.418 50.6 441.284 49.4C440.218 48.2 438.684 47.6 436.684 47.6C434.484 47.6 432.318 48.3667 430.184 49.9C428.118 51.4333 426.251 53.4 424.584 55.8C422.918 58.1333 421.584 60.6 420.584 63.2C419.584 65.7333 419.084 68.0333 419.084 70.1C419.084 71.7667 419.318 73.4333 419.784 75.1C420.318 76.7667 421.151 78.1667 422.284 79.3C423.418 80.3667 424.918 80.9 426.784 80.9ZM477.822 88C476.155 88 474.922 87.5333 474.122 86.6C473.322 85.6 472.822 84.4 472.622 83C472.422 81.5333 472.322 80.1333 472.322 78.8C472.322 75.7333 472.389 72.6667 472.522 69.6C472.722 66.5333 472.822 63.6 472.822 60.8C472.822 57.8 472.489 54.9333 471.822 52.2C471.155 49.4667 470.822 46.7333 470.822 44V40.1C471.422 38.7 472.055 37.7667 472.722 37.3C473.389 36.7667 474.289 36.5 475.422 36.5C477.489 36.5 478.989 37.1667 479.922 38.5C480.855 39.7667 481.455 41.3 481.722 43.1C482.055 44.8333 482.289 46.4333 482.422 47.9C482.489 48.6333 482.622 50.0667 482.822 52.2C483.089 54.3333 483.255 56.3333 483.322 58.2H483.722L484.122 57.8C485.389 55.9333 486.722 53.9333 488.122 51.8C489.522 49.6667 491.055 47.6667 492.722 45.8C494.455 43.9333 496.355 42.4333 498.422 41.3C500.489 40.1 502.822 39.5 505.422 39.5C508.755 39.5 511.589 40.4667 513.922 42.4C516.255 44.2667 518.222 46.7333 519.822 49.8C521.422 52.8 522.722 56.0667 523.722 59.6C524.722 63.1333 525.522 66.5667 526.122 69.9C526.722 73.2333 527.255 76.1 527.722 78.5V81C527.722 82.4667 527.322 83.9333 526.522 85.4C525.722 86.8 524.455 87.5 522.722 87.5C520.922 87.5 519.589 87.0333 518.722 86.1C517.922 85.1667 517.389 83.9667 517.122 82.5C516.989 81.9 516.822 80.9333 516.622 79.6C516.422 78.2 516.189 76.7 515.922 75.1C515.655 73.4333 515.422 71.9 515.222 70.5C515.022 69.0333 514.855 67.9667 514.722 67.3C514.522 65.9667 514.055 64.4 513.322 62.6C512.655 60.7333 512.022 59.1333 511.422 57.8C510.822 56.4 510.055 54.9333 509.122 53.4C508.189 51.8667 506.822 51.1 505.022 51.1C503.422 51.1 501.955 51.6667 500.622 52.8C499.355 53.9333 498.222 55.2667 497.222 56.8C496.289 58.3333 495.455 59.7 494.722 60.9C493.055 63.5667 491.555 66.2333 490.222 68.9C488.889 71.5667 487.455 74.4667 485.922 77.6C485.322 78.8667 484.755 80.3333 484.222 82C483.689 83.6 482.955 85 482.022 86.2C481.089 87.4 479.689 88 477.822 88ZM548.805 28.4C546.805 28.4 545.071 27.7667 543.605 26.5C542.138 25.2333 541.405 23.3667 541.405 20.9C541.405 18.4333 542.271 16.7 544.005 15.7C545.738 14.7 547.505 14.2 549.305 14.2C551.371 14.2 553.105 14.8333 554.505 16.1C555.971 17.3667 556.705 19.2667 556.705 21.8C556.705 24.2 555.838 25.9 554.105 26.9C552.438 27.9 550.671 28.4 548.805 28.4ZM544.805 88.5C543.538 88.5 542.571 87.8333 541.905 86.5C541.238 85.1667 540.738 83.8333 540.405 82.5V69.6C540.405 69.2667 540.471 68.4 540.605 67C540.805 65.5333 541.005 63.8333 541.205 61.9C541.471 59.9 541.705 58 541.905 56.2C542.171 54.3333 542.371 52.8667 542.505 51.8C542.705 50.4667 542.938 49 543.205 47.4C543.538 45.8 544.105 44.4 544.905 43.2C545.705 42 546.838 41.4 548.305 41.4C549.905 41.4 551.038 41.8 551.705 42.6C552.438 43.3333 552.871 44.2667 553.005 45.4C553.138 46.5333 553.205 47.7 553.205 48.9V52.4C553.205 52.5333 553.171 52.8333 553.105 53.3C553.038 53.7 552.938 54.1667 552.805 54.7C552.338 57.0333 551.971 58.7667 551.705 59.9C551.505 60.9667 551.338 61.9 551.205 62.7C551.138 63.4333 551.105 64.4667 551.105 65.8C551.105 66.6 551.105 67.6 551.105 68.8C551.171 70 551.205 71.5667 551.205 73.5C551.205 74.3667 551.238 75.2333 551.305 76.1C551.371 76.9 551.405 77.7667 551.405 78.7C551.405 79.7 551.305 80.7667 551.105 81.9C550.838 83.5667 550.238 85.1 549.305 86.5C548.371 87.8333 546.871 88.5 544.805 88.5ZM582.277 91C579.21 91 576.343 90.3 573.677 88.9C571.01 87.5 568.777 85.6333 566.977 83.3C565.177 80.9 564.01 78.2 563.477 75.2V70.1C563.477 66.3667 564.143 62.6 565.477 58.8C566.81 55 568.71 51.5 571.177 48.3C573.643 45.0333 576.577 42.4333 579.977 40.5C583.377 38.5 587.11 37.5 591.177 37.5C592.843 37.5 594.277 37.8 595.477 38.4C596.743 39 597.877 39.6333 598.877 40.3C599.943 40.9 600.977 41.2667 601.977 41.4C602.51 38.6667 603.243 36.8667 604.177 36C605.11 35.0667 606.377 34.6 607.977 34.6C609.91 34.6 611.21 35.2333 611.877 36.5C612.61 37.7 612.977 39.2333 612.977 41.1C612.977 44.7667 612.877 48.3667 612.677 51.9C612.543 55.4333 612.477 59.0667 612.477 62.8C612.477 65.7333 612.643 68.7667 612.977 71.9C613.31 75.0333 613.477 78.0667 613.477 81V83.1C613.477 84.5667 613.177 85.9333 612.577 87.2C612.043 88.4 610.81 89 608.877 89C607.077 89 605.777 88.4667 604.977 87.4C604.243 86.2667 603.743 84.9333 603.477 83.4C603.277 81.8 603.077 80.3667 602.877 79.1L602.477 78.7C600.21 80.9667 598.177 83.0333 596.377 84.9C594.643 86.7667 592.71 88.2667 590.577 89.4C588.443 90.4667 585.677 91 582.277 91ZM581.277 80.9C583.61 80.9 585.81 80.2 587.877 78.8C590.01 77.3333 591.91 75.4667 593.577 73.2C595.243 70.8667 596.543 68.4333 597.477 65.9C598.41 63.3667 598.877 61 598.877 58.8C598.877 57.1333 598.643 55.4667 598.177 53.8C597.71 52.0667 596.91 50.6 595.777 49.4C594.71 48.2 593.177 47.6 591.177 47.6C588.977 47.6 586.81 48.3667 584.677 49.9C582.61 51.4333 580.743 53.4 579.077 55.8C577.41 58.1333 576.077 60.6 575.077 63.2C574.077 65.7333 573.577 68.0333 573.577 70.1C573.577 71.7667 573.81 73.4333 574.277 75.1C574.81 76.7667 575.643 78.1667 576.777 79.3C577.91 80.3667 579.41 80.9 581.277 80.9Z" fill="black"/>
</svg>
